<svg width="21" height="21" viewBox="0 0 21 21" fill="none" xmlns="http://www.w3.org/2000/svg">
<path d="M11.556 20.797H10.307C9.8213 20.7965 9.35563 20.6033 9.01218 20.2598C8.66873 19.9164 8.47555 19.4507 8.47502 18.965V18.542C8.04521 18.4047 7.62773 18.2314 7.22702 18.024L6.92702 18.324C6.7569 18.4941 6.55493 18.6291 6.33265 18.7212C6.11036 18.8133 5.87212 18.8607 5.63152 18.8607C5.39092 18.8607 5.15267 18.8133 4.93039 18.7212C4.70811 18.6291 4.50614 18.4941 4.33602 18.324L3.45302 17.441C3.28288 17.2709 3.14791 17.0689 3.05583 16.8466C2.96375 16.6243 2.91636 16.3861 2.91636 16.1455C2.91636 15.9049 2.96375 15.6667 3.05583 15.4444C3.14791 15.2221 3.28288 15.0201 3.45302 14.85L3.75302 14.55C3.54562 14.1493 3.37234 13.7318 3.23502 13.302H2.81302C2.32765 13.3015 1.86228 13.1086 1.51889 12.7655C1.17549 12.4225 0.982076 11.9574 0.981018 11.472V10.223C0.981547 9.73729 1.17473 9.27162 1.51818 8.92817C1.86164 8.58472 2.3273 8.39153 2.81302 8.391H3.23602C3.37335 7.9612 3.54663 7.54373 3.75402 7.143L3.45402 6.843C3.28388 6.67288 3.14891 6.47092 3.05683 6.24863C2.96475 6.02635 2.91736 5.7881 2.91736 5.5475C2.91736 5.3069 2.96475 5.06866 3.05683 4.84637C3.14891 4.62409 3.28388 4.42212 3.45402 4.252L4.33702 3.369C4.50714 3.19886 4.70911 3.0639 4.93139 2.97182C5.15367 2.87974 5.39192 2.83234 5.63252 2.83234C5.87312 2.83234 6.11136 2.87974 6.33365 2.97182C6.55593 3.0639 6.7579 3.19886 6.92802 3.369L7.22802 3.669C7.62875 3.46163 8.04622 3.28835 8.47602 3.151V2.729C8.47655 2.24346 8.66959 1.77794 9.01283 1.43452C9.35606 1.0911 9.82148 0.897797 10.307 0.897003H11.556C12.0417 0.897533 12.5074 1.09072 12.8509 1.43417C13.1943 1.77762 13.3875 2.24329 13.388 2.729V3.152C13.8178 3.28932 14.2353 3.4626 14.636 3.67L14.936 3.37C15.1061 3.19986 15.3081 3.0649 15.5304 2.97282C15.7527 2.88074 15.9909 2.83334 16.2315 2.83334C16.4721 2.83334 16.7104 2.88074 16.9326 2.97282C17.1549 3.0649 17.3569 3.19986 17.527 3.37L18.41 4.253C18.5802 4.42312 18.7151 4.62509 18.8072 4.84737C18.8993 5.06966 18.9467 5.3079 18.9467 5.5485C18.9467 5.7891 18.8993 6.02735 18.8072 6.24963C18.7151 6.47192 18.5802 6.67388 18.41 6.844L18.11 7.144C18.3174 7.54472 18.4907 7.9622 18.628 8.392H19.051C19.5362 8.39306 20.0012 8.58634 20.3442 8.92952C20.6872 9.2727 20.8802 9.73781 20.881 10.223V11.472C20.8805 11.9577 20.6873 12.4234 20.3439 12.7668C20.0004 13.1103 19.5347 13.3035 19.049 13.304H18.626C18.4887 13.7338 18.3154 14.1513 18.108 14.552L18.408 14.852C18.5782 15.0221 18.7131 15.2241 18.8052 15.4464C18.8973 15.6687 18.9447 15.9069 18.9447 16.1475C18.9447 16.3881 18.8973 16.6263 18.8052 16.8486C18.7131 17.0709 18.5782 17.2729 18.408 17.443L17.525 18.326C17.3549 18.4961 17.1529 18.6311 16.9306 18.7232C16.7084 18.8153 16.4701 18.8627 16.2295 18.8627C15.9889 18.8627 15.7507 18.8153 15.5284 18.7232C15.3061 18.6311 15.1041 18.4961 14.934 18.326L14.634 18.026C14.2333 18.2334 13.8158 18.4067 13.386 18.544V18.967C13.385 19.452 13.1918 19.9169 12.8489 20.2598C12.5059 20.6028 12.041 20.7959 11.556 20.797ZM7.42202 16.797C7.97795 17.1262 8.57752 17.3753 9.20302 17.537C9.3282 17.5694 9.43907 17.6425 9.51818 17.7447C9.59728 17.847 9.64015 17.9727 9.64002 18.102V18.963C9.64028 19.1396 9.71054 19.3088 9.83538 19.4336C9.96022 19.5585 10.1295 19.6287 10.306 19.629H11.555C11.7316 19.6287 11.9008 19.5585 12.0257 19.4336C12.1505 19.3088 12.2208 19.1396 12.221 18.963V18.102C12.2209 17.9727 12.2638 17.847 12.3429 17.7447C12.422 17.6425 12.5328 17.5694 12.658 17.537C13.2835 17.3753 13.8831 17.1262 14.439 16.797C14.5504 16.7312 14.6806 16.7043 14.8089 16.7206C14.9373 16.7369 15.0566 16.7955 15.148 16.887L15.758 17.497C15.8199 17.5589 15.8933 17.6079 15.9741 17.6414C16.0549 17.6749 16.1415 17.6921 16.229 17.6921C16.3165 17.6921 16.4031 17.6749 16.4839 17.6414C16.5647 17.6079 16.6382 17.5589 16.7 17.497L17.583 16.614C17.6449 16.5522 17.694 16.4787 17.7274 16.3979C17.7609 16.3171 17.7782 16.2305 17.7782 16.143C17.7782 16.0555 17.7609 15.9689 17.7274 15.8881C17.694 15.8073 17.6449 15.7338 17.583 15.672L16.973 15.062C16.8815 14.9706 16.8229 14.8513 16.8066 14.7229C16.7903 14.5945 16.8172 14.4644 16.883 14.353C17.2118 13.797 17.4606 13.1975 17.622 12.572C17.6544 12.4468 17.7275 12.336 17.8298 12.2568C17.932 12.1777 18.0577 12.1349 18.187 12.135H19.048C19.2246 12.1347 19.3938 12.0645 19.5187 11.9396C19.6435 11.8148 19.7138 11.6456 19.714 11.469V10.223C19.7138 10.0465 19.6435 9.8772 19.5187 9.75236C19.3938 9.62752 19.2246 9.55727 19.048 9.557H18.187C18.0577 9.55713 17.932 9.51427 17.8298 9.43516C17.7275 9.35605 17.6544 9.24519 17.622 9.12C17.46 8.49445 17.2105 7.89488 16.881 7.339C16.8152 7.22759 16.7883 7.09746 16.8046 6.9691C16.8209 6.84073 16.8795 6.72144 16.971 6.63L17.581 6.02C17.6429 5.95816 17.692 5.88473 17.7254 5.80391C17.7589 5.7231 17.7762 5.63648 17.7762 5.549C17.7762 5.46153 17.7589 5.37491 17.7254 5.29409C17.692 5.21328 17.6429 5.13985 17.581 5.078L16.702 4.197C16.6402 4.13514 16.5667 4.08607 16.4859 4.05258C16.4051 4.0191 16.3185 4.00187 16.231 4.00187C16.1435 4.00187 16.0569 4.0191 15.9761 4.05258C15.8953 4.08607 15.8219 4.13514 15.76 4.197L15.15 4.807C15.0586 4.89856 14.9393 4.95709 14.8109 4.97338C14.6826 4.98968 14.5524 4.96281 14.441 4.897C13.8851 4.56785 13.2855 4.31874 12.66 4.157C12.5348 4.12462 12.424 4.05154 12.3449 3.94926C12.2658 3.84698 12.2229 3.72131 12.223 3.592V2.729C12.2228 2.55245 12.1525 2.3832 12.0277 2.25836C11.9028 2.13352 11.7336 2.06327 11.557 2.063H10.307C10.1305 2.06327 9.96122 2.13352 9.83638 2.25836C9.71154 2.3832 9.64128 2.55245 9.64102 2.729V3.59C9.64115 3.71931 9.59828 3.84498 9.51918 3.94726C9.44007 4.04954 9.3292 4.12262 9.20402 4.155C8.57807 4.31728 7.97816 4.56707 7.42202 4.897C7.31061 4.96281 7.18047 4.98968 7.05211 4.97338C6.92375 4.95709 6.80445 4.89856 6.71302 4.807L6.10302 4.197C6.04117 4.13514 5.96774 4.08607 5.88693 4.05258C5.80611 4.0191 5.71949 4.00187 5.63202 4.00187C5.54454 4.00187 5.45792 4.0191 5.37711 4.05258C5.29629 4.08607 5.22286 4.13514 5.16102 4.197L4.28102 5.078C4.21915 5.13985 4.17008 5.21328 4.1366 5.29409C4.10312 5.37491 4.08588 5.46153 4.08588 5.549C4.08588 5.63648 4.10312 5.7231 4.1366 5.80391C4.17008 5.88473 4.21915 5.95816 4.28102 6.02L4.89102 6.63C4.98234 6.72137 5.04073 6.84048 5.05701 6.96862C5.0733 7.09677 5.04657 7.2267 4.98102 7.338C4.65219 7.89398 4.40341 8.49355 4.24202 9.119C4.20964 9.24419 4.13656 9.35505 4.03428 9.43416C3.932 9.51327 3.80632 9.55613 3.67702 9.556H2.81302C2.63647 9.55627 2.46722 9.62652 2.34238 9.75136C2.21754 9.8762 2.14728 10.0455 2.14702 10.222V11.471C2.14728 11.6476 2.21754 11.8168 2.34238 11.9416C2.46722 12.0665 2.63647 12.1367 2.81302 12.137H3.67402C3.80332 12.1369 3.929 12.1797 4.03128 12.2588C4.13356 12.338 4.20664 12.4488 4.23902 12.574C4.4012 13.2003 4.651 13.8006 4.98102 14.357C5.04682 14.4684 5.07369 14.5985 5.0574 14.7269C5.04111 14.8553 4.98257 14.9746 4.89102 15.066L4.28102 15.676C4.21915 15.7379 4.17008 15.8113 4.1366 15.8921C4.10312 15.9729 4.08588 16.0595 4.08588 16.147C4.08588 16.2345 4.10312 16.3211 4.1366 16.4019C4.17008 16.4827 4.21915 16.5562 4.28102 16.618L5.16402 17.501C5.22586 17.5629 5.29929 17.6119 5.38011 17.6454C5.46092 17.6789 5.54754 17.6961 5.63502 17.6961C5.72249 17.6961 5.80911 17.6789 5.88993 17.6454C5.97074 17.6119 6.04417 17.5629 6.10602 17.501L6.71602 16.891C6.80772 16.7999 6.92698 16.7417 7.05521 16.7254C7.18344 16.7091 7.31346 16.7357 7.42502 16.801L7.42202 16.797Z" fill="#5F6368"/>
<path d="M10.932 15.178C10.0756 15.178 9.23844 14.9241 8.52637 14.4483C7.81431 13.9725 7.25932 13.2962 6.93159 12.505C6.60387 11.7138 6.51812 10.8432 6.68519 10.0033C6.85227 9.16333 7.26466 8.39179 7.87022 7.78623C8.47578 7.18067 9.24731 6.76828 10.0873 6.6012C10.9272 6.43413 11.7978 6.51988 12.589 6.84761C13.3802 7.17533 14.0565 7.73032 14.5323 8.44238C15.008 9.15445 15.262 9.99161 15.262 10.848C15.2607 11.996 14.804 13.0966 13.9923 13.9083C13.1806 14.7201 12.08 15.1767 10.932 15.178ZM10.932 7.684C10.3062 7.684 9.69448 7.86957 9.17417 8.21723C8.65385 8.5649 8.24831 9.05905 8.00884 9.63719C7.76936 10.2153 7.7067 10.8515 7.82879 11.4653C7.95087 12.079 8.25221 12.6428 8.69471 13.0853C9.1372 13.5278 9.70097 13.8291 10.3147 13.9512C10.9285 14.0733 11.5647 14.0106 12.1428 13.7712C12.7209 13.5317 13.2151 13.1261 13.5628 12.6058C13.9104 12.0855 14.096 11.4738 14.096 10.848C14.0949 10.0092 13.7612 9.20502 13.1681 8.61189C12.575 8.01875 11.7708 7.68506 10.932 7.684Z" fill="#5F6368"/>
</svg>
