<svg width="18" height="20" viewBox="0 0 18 20" fill="none" xmlns="http://www.w3.org/2000/svg">
<path d="M8.91709 9.598C9.54091 9.6066 10.1599 9.48785 10.7363 9.24902C11.3126 9.01019 11.8342 8.6563 12.2691 8.209C12.7162 7.77401 13.0699 7.2524 13.3086 6.67605C13.5472 6.09971 13.6658 5.48074 13.6571 4.857C13.6657 4.23318 13.5469 3.61417 13.3081 3.03782C13.0693 2.46147 12.7154 1.9399 12.2681 1.505C11.8332 1.05804 11.3117 0.704442 10.7356 0.465796C10.1594 0.227149 9.54066 0.108466 8.91709 0.116997C8.29328 0.108401 7.67427 0.227147 7.09792 0.465975C6.52157 0.704803 5.99999 1.05869 5.56509 1.506C5.11791 1.94078 4.76409 2.46219 4.52527 3.03836C4.28645 3.61453 4.16763 4.23335 4.17609 4.857C4.1675 5.48081 4.28624 6.09982 4.52507 6.67617C4.7639 7.25253 5.11779 7.7741 5.56509 8.209C6.00003 8.65626 6.52161 9.01011 7.09795 9.24894C7.67429 9.48776 8.29329 9.60654 8.91709 9.598ZM6.38109 2.317C6.70885 1.97716 7.1033 1.70873 7.53971 1.52855C7.97612 1.34838 8.44506 1.26035 8.91709 1.27C9.38913 1.26041 9.85804 1.34847 10.2944 1.52864C10.7308 1.70881 11.1253 1.9772 11.4531 2.317C11.7941 2.6449 12.0635 3.03986 12.2444 3.477C12.4253 3.91415 12.5137 4.38401 12.5041 4.857C12.5132 5.32932 12.4245 5.79842 12.2436 6.23483C12.0628 6.67125 11.7936 7.06555 11.4531 7.393C11.1257 7.73351 10.7313 8.00266 10.2949 8.18352C9.85851 8.36438 9.38942 8.45307 8.91709 8.444C8.44477 8.45307 7.97568 8.36438 7.53926 8.18352C7.10285 8.00266 6.70854 7.73351 6.38109 7.393C6.04053 7.06559 5.77136 6.67129 5.59049 6.23487C5.40962 5.79844 5.32097 5.32933 5.3301 4.857C5.32047 4.38401 5.40888 3.91415 5.58977 3.477C5.77065 3.03986 6.04008 2.6449 6.38109 2.317Z" fill="#5F6368"/>
<path d="M17.2121 15.251C17.1813 14.8338 17.1283 14.4185 17.0531 14.007C16.9786 13.5841 16.8763 13.1665 16.7471 12.757C16.6164 12.3516 16.4441 11.9609 16.2331 11.591C16.0251 11.2185 15.764 10.8783 15.4581 10.581C15.1359 10.2778 14.7579 10.0401 14.3451 9.881C13.8919 9.70643 13.4097 9.61922 12.9241 9.624C12.6407 9.65458 12.3728 9.76836 12.1541 9.951C11.9231 10.102 11.6541 10.276 11.3541 10.468C11.0283 10.6629 10.6796 10.8168 10.3161 10.926C9.4915 11.1996 8.60064 11.1996 7.77607 10.926C7.41002 10.8174 7.05897 10.6636 6.73107 10.468C6.43107 10.277 6.16207 10.103 5.93107 9.95C5.71238 9.76726 5.44442 9.65346 5.16107 9.623C4.67535 9.61842 4.19317 9.70597 3.74007 9.881C3.32687 10.0399 2.94852 10.2777 2.62607 10.581C2.32014 10.8783 2.05907 11.2185 1.85107 11.591C1.638 11.9607 1.46374 12.3514 1.33107 12.757C1.20388 13.1667 1.10366 13.5842 1.03107 14.007C0.95573 14.4185 0.902653 14.8338 0.872068 15.251C0.844068 15.627 0.831068 16.018 0.831068 16.414C0.810868 16.8711 0.88686 17.3273 1.05413 17.7531C1.22139 18.1789 1.4762 18.5649 1.80207 18.886C2.48248 19.5079 3.38106 19.8357 4.30207 19.798H13.7791C14.7001 19.8357 15.5987 19.5079 16.2791 18.886C16.6051 18.5648 16.86 18.1787 17.0273 17.7527C17.1946 17.3266 17.2705 16.8702 17.2501 16.413C17.2501 16.013 17.2361 15.625 17.2101 15.25L17.2121 15.251ZM15.4861 18.051C15.2549 18.2576 14.9851 18.4164 14.6924 18.5183C14.3996 18.6203 14.0895 18.6633 13.7801 18.645H4.30307C3.99359 18.6633 3.68355 18.6203 3.39077 18.5183C3.09799 18.4164 2.82825 18.2576 2.59707 18.051C2.3853 17.8368 2.22129 17.5802 2.1158 17.298C2.01032 17.0159 1.96577 16.7146 1.98507 16.414C1.98507 16.045 1.99707 15.681 2.02107 15.332C2.04892 14.9564 2.09699 14.5825 2.16507 14.212C2.23065 13.8399 2.3205 13.4724 2.43407 13.112C2.54045 12.7825 2.68053 12.4648 2.85207 12.164C3.00507 11.8891 3.19706 11.6379 3.42207 11.418C3.63688 11.2178 3.88854 11.0612 4.16307 10.957C4.45316 10.846 4.76049 10.7867 5.07107 10.782C5.11107 10.803 5.18307 10.844 5.30007 10.92C5.53707 11.075 5.81007 11.251 6.11307 11.444C6.52043 11.6915 6.95716 11.887 7.41307 12.026C8.46841 12.3743 9.60773 12.3743 10.6631 12.026C11.119 11.8866 11.5557 11.6907 11.9631 11.443C12.2721 11.243 12.5381 11.074 12.7751 10.92C12.8921 10.844 12.9631 10.803 13.0041 10.782C13.315 10.7867 13.6226 10.8459 13.9131 10.957C14.1876 11.0613 14.4392 11.2179 14.6541 11.418C14.8792 11.6381 15.0713 11.8897 15.2241 12.165C15.3957 12.4657 15.5358 12.7834 15.6421 13.113C15.7557 13.4734 15.8455 13.8408 15.9111 14.213C15.9811 14.5844 16.0312 14.9593 16.0611 15.336C16.0851 15.684 16.0981 16.048 16.0981 16.418C16.1172 16.7187 16.0725 17.02 15.9669 17.3021C15.8612 17.5843 15.697 17.8409 15.4851 18.055L15.4861 18.051Z" fill="#5F6368"/>
</svg>
