<svg width="18" height="22" viewBox="0 0 18 22" fill="none" xmlns="http://www.w3.org/2000/svg">
<path d="M9.79493 4.545C9.74109 4.545 9.68777 4.5344 9.63803 4.51379C9.58828 4.49319 9.54308 4.46299 9.50501 4.42492C9.46694 4.38685 9.43674 4.34165 9.41614 4.2919C9.39553 4.24216 9.38493 4.18885 9.38493 4.135V2.757C9.38493 2.53953 9.29853 2.33096 9.14475 2.17718C8.99097 2.0234 8.7824 1.937 8.56493 1.937C8.34745 1.937 8.13888 2.0234 7.9851 2.17718C7.83132 2.33096 7.74493 2.53953 7.74493 2.757V4.135C7.74493 4.24374 7.70173 4.34803 7.62484 4.42492C7.54795 4.50181 7.44367 4.545 7.33493 4.545C7.22619 4.545 7.1219 4.50181 7.04501 4.42492C6.96812 4.34803 6.92493 4.24374 6.92493 4.135V2.757C6.92493 2.32205 7.09771 1.90491 7.40527 1.59735C7.71283 1.28979 8.12997 1.117 8.56493 1.117C8.99988 1.117 9.41702 1.28979 9.72458 1.59735C10.0321 1.90491 10.2049 2.32205 10.2049 2.757V4.135C10.2049 4.18885 10.1943 4.24216 10.1737 4.2919C10.1531 4.34165 10.1229 4.38685 10.0848 4.42492C10.0468 4.46299 10.0016 4.49319 9.95183 4.51379C9.90208 4.5344 9.84877 4.545 9.79493 4.545Z" fill="#5F6368" stroke="#5E6267" stroke-width="0.5"/>
<path d="M8.56495 20.798C7.80402 20.7972 7.07448 20.4946 6.53643 19.9565C5.99837 19.4185 5.69574 18.6889 5.69495 17.928C5.69495 17.8193 5.73814 17.715 5.81503 17.6381C5.89192 17.5612 5.99621 17.518 6.10495 17.518C6.21368 17.518 6.31797 17.5612 6.39486 17.6381C6.47175 17.715 6.51495 17.8193 6.51495 17.928C6.51495 18.1972 6.56797 18.4638 6.67099 18.7125C6.77401 18.9612 6.92502 19.1872 7.11538 19.3776C7.30574 19.5679 7.53173 19.7189 7.78045 19.822C8.02916 19.925 8.29574 19.978 8.56495 19.978C8.83416 19.978 9.10073 19.925 9.34945 19.822C9.59816 19.7189 9.82415 19.5679 10.0145 19.3776C10.2049 19.1872 10.3559 18.9612 10.4589 18.7125C10.5619 18.4638 10.6149 18.1972 10.6149 17.928C10.6149 17.8193 10.6581 17.715 10.735 17.6381C10.8119 17.5612 10.9162 17.518 11.0249 17.518C11.1337 17.518 11.238 17.5612 11.3149 17.6381C11.3917 17.715 11.4349 17.8193 11.4349 17.928C11.4342 18.6889 11.1315 19.4185 10.5935 19.9565C10.0554 20.4946 9.32587 20.7972 8.56495 20.798Z" fill="#5F6368" stroke="#5E6267" stroke-width="0.5"/>
<path d="M15.536 18.338H1.59496C1.34343 18.3382 1.09789 18.2612 0.891441 18.1175C0.684995 17.9738 0.527568 17.7703 0.440384 17.5343C0.353199 17.2984 0.340448 17.0414 0.40385 16.798C0.467251 16.5546 0.603757 16.3364 0.794965 16.173C1.43114 15.6377 1.94249 14.9696 2.29317 14.2158C2.64385 13.4619 2.82536 12.6404 2.82496 11.809V9.317C2.82496 7.79453 3.42977 6.33441 4.50632 5.25786C5.58287 4.1813 7.04299 3.5765 8.56546 3.5765C10.0879 3.5765 11.5481 4.1813 12.6246 5.25786C13.7012 6.33441 14.306 7.79453 14.306 9.317V11.808C14.3054 12.6381 14.4862 13.4582 14.8356 14.2111C15.1851 14.964 15.6947 15.6315 16.329 16.167C16.522 16.3295 16.6604 16.5474 16.7254 16.7913C16.7904 17.0351 16.7788 17.293 16.6922 17.53C16.6056 17.767 16.4483 17.9717 16.2414 18.1162C16.0346 18.2608 15.7883 18.3382 15.536 18.338ZM8.56496 4.397C7.26051 4.39833 6.00985 4.91711 5.08746 5.8395C4.16507 6.76189 3.64629 8.01254 3.64496 9.317V11.808C3.64587 12.7573 3.43933 13.6952 3.03979 14.5563C2.64026 15.4174 2.05739 16.1808 1.33196 16.793C1.26758 16.8471 1.22136 16.9196 1.19959 17.0008C1.17781 17.082 1.18153 17.168 1.21024 17.247C1.23894 17.326 1.29125 17.3943 1.36007 17.4426C1.42889 17.4909 1.51089 17.5169 1.59496 17.517H15.536C15.6199 17.5172 15.7019 17.4916 15.7709 17.4437C15.8398 17.3959 15.8924 17.328 15.9215 17.2492C15.9506 17.1705 15.9549 17.0847 15.9337 17.0035C15.9125 16.9222 15.8668 16.8495 15.803 16.795C15.0767 16.1826 14.493 15.4189 14.0928 14.5573C13.6926 13.6957 13.4855 12.757 13.486 11.807V9.317C13.4846 8.01237 12.9657 6.76157 12.0431 5.83915C11.1205 4.91673 9.8696 4.39806 8.56496 4.397Z" fill="#5F6368" stroke="#5E6267" stroke-width="0.5"/>
</svg>
